Coordinates
version=1
nRows=8
nColumns=42
inDegrees=yes

Units are S.I. units (second, meters, Newtons, ...)
If the header above contains a line with 'inDegrees', this indicates whether rotational values are in degrees (yes) or radians (no).

endheader
time	pelvis_tilt	pelvis_list	pelvis_rotation	pelvis_tx	pelvis_ty	pelvis_tz	hip_flexion_r	hip_adduction_r	hip_rotation_r	knee_angle_r	knee_adduction_r	knee_angle_r_beta	ankle_angle_r	subtalar_angle_r	mtp_angle_r	hip_flexion_l	hip_adduction_l	hip_rotation_l	knee_angle_l	knee_adduction_l	knee_angle_l_beta	ankle_angle_l	subtalar_angle_l	mtp_angle_l	lumbar_extension	lumbar_bending	lumbar_rotation	arm_flex_r	arm_add_r	arm_rot_r	elbow_flex_r	pro_sup_r	wrist_flex_r	wrist_dev_r	arm_flex_l	arm_add_l	arm_rot_l	elbow_flex_l	pro_sup_l	wrist_flex_l	wrist_dev_l
      1.93000000	      8.41869808	      6.68590296	      2.58319525	     -0.29260173	      1.00118851	      0.29958799	     19.94191168	    -16.23927812	    -17.59312077	     62.77218128	     -3.73821548	      1.09558124	     -0.44544410	    -11.65551491	     -7.51048026	     -2.72074641	      7.03457200	    -18.96985792	      9.23210709	     -5.65340666	      0.16113067	      6.19119000	     29.26002103	     -7.51048026	    -29.66678113	    -10.29055288	     -6.09675504	      4.74734811	    -10.36881788	     17.69383532	     34.57222466	     90.00000001	      0.00000000	      0.00000000	     18.00156025	    -26.54500294	     13.01096477	     45.55429015	     90.00000001	      0.00000000	      0.00000000
      1.94000000	      8.09545000	      6.99327666	      2.95771563	     -0.28559463	      1.00064781	      0.29938118	     20.84756284	    -16.49722329	    -17.63599371	     60.45475517	     -3.43601862	      1.05513453	     -0.17937209	    -11.36079864	     -7.51037958	     -2.83638035	      7.28153069	    -18.99254962	      9.25898443	     -5.58592597	      0.16159976	      6.35164165	     29.02990792	     -7.51037958	    -29.50149907	    -10.48591380	     -6.66259368	      3.91416817	    -10.14000299	     17.74046441	     34.51833429	     90.00000001	      0.00000000	      0.00000000	     19.01111846	    -26.95278603	     12.79900598	     45.96652627	     90.00000001	      0.00000000	      0.00000000
      1.95000000	      7.92899681	      6.98081776	      3.46999935	     -0.27836939	      1.00039567	      0.29932179	     21.24676482	    -16.32803540	    -17.91159795	     57.61068188	     -3.15602996	      1.00549608	      0.38927866	    -10.63104788	     -7.51018236	     -3.26792939	      7.26103904	    -18.09157170	      9.04234794	     -5.63265741	      0.15781874	      6.91309975	     29.50109349	     -7.51018236	    -29.48899395	    -10.28088290	     -7.04842422	      2.90528558	     -9.81016166	     17.65079168	     34.66683717	     90.00000001	      0.00000000	      0.00000000	     19.95769608	    -27.19528252	     12.62112343	     46.64200287	     90.00000001	      0.00000000	      0.00000000
      1.96000000	      7.86058459	      7.18215954	      3.81642767	     -0.27086708	      0.99999374	      0.29941378	     21.58976717	    -16.42503126	    -18.83947895	     54.68373501	     -3.55555761	      0.95441122	      1.36821461	     -8.28534058	     -7.50962986	     -3.79456137	      7.41070293	    -17.86801489	      8.86968743	     -5.63244879	      0.15480525	      7.36226973	     29.92038073	     -7.50962986	    -29.55268189	    -10.35771819	     -7.47979206	      1.76258972	     -9.53671672	     17.04944011	     35.35573520	     90.00000001	      0.00000000	      0.00000000	     20.68875116	    -27.61242824	     12.32518608	     47.71361772	     90.00000001	      0.00000000	      0.00000000
      1.97000000	      7.67473553	      7.31882714	      4.13636440	     -0.26341523	      0.99944199	      0.29966356	     21.96910604	    -16.32986526	    -19.21047894	     51.52785729	     -3.64363288	      0.89933077	      1.97313892	     -6.63166174	     -7.50913222	     -4.17067369	      7.48724348	    -17.59484438	      8.74999299	     -5.62785715	      0.15271619	      7.81299832	     30.14687588	     -7.50913222	    -29.48746722	    -10.39447928	     -7.83314967	      0.78636947	     -9.25575894	     16.79835140	     35.57381070	     90.00000001	      0.00000000	      0.00000000	     21.48781829	    -27.90090382	     11.98675097	     48.47532276	     90.00000001	      0.00000000	      0.00000000
      1.98000000	      7.33222114	      7.44676447	      4.42687541	     -0.25604850	      0.99865004	      0.30000866	     22.42561419	    -16.17378837	    -19.12503968	     48.19609059	     -3.44738842	      0.84118047	      2.18722209	     -5.92004673	     -7.50899067	     -4.31767973	      7.57934087	    -17.34295209	      8.69566519	     -5.66756336	      0.15176799	      8.13831001	     30.08586562	     -7.50899067	    -29.24054592	    -10.44654881	     -8.13990454	     -0.12985126	     -9.03378507	     16.79946642	     35.62869843	     90.00000001	      0.00000000	      0.00000000	     22.27552244	    -28.12685886	     11.76424118	     49.04986899	     90.00000001	      0.00000000	      0.00000000
      1.99000000	      7.33503108	      7.57308079	      4.69563417	     -0.24817553	      0.99814428	      0.30050434	     22.40479664	    -16.07130614	    -20.25645594	     44.68229056	     -4.05455611	      0.77985309	      3.26107471	     -2.26691744	     -7.50844337	     -4.97874580	      7.57437503	    -17.15291638	      8.47694597	     -5.56844140	      0.14795062	      8.70645543	     30.56496439	     -7.50844337	    -29.35117292	    -10.45634446	     -8.44262175	     -1.31322622	     -8.81976018	     16.26480732	     36.44576901	     90.00000001	      0.00000000	      0.00000000	     22.74453973	    -28.38975810	     11.08457629	     50.37678290	     90.00000001	      0.00000000	      0.00000000
      2.00000000	      7.19008794	      7.68359479	      4.93774084	     -0.24038013	      0.99745467	      0.30110908	     22.46912395	    -15.89295278	    -20.96537671	     41.05369691	     -4.39843093	      0.71652218	      3.93654469	      0.61312200	     -7.50790845	     -5.40692347	      7.57326926	    -17.01267797	      8.37051912	     -5.53453294	      0.14609312	      9.19188342	     30.82223535	     -7.50790845	    -29.28954775	    -10.48435325	     -8.68970158	     -2.28165574	     -8.58123792	     15.98174368	     36.69965039	     90.00000001	      0.00000000	      0.00000000	     23.36000121	    -28.56160535	     10.64308180	     51.20423645	     90.00000001	      0.00000000	      0.00000000
